# xmcd
#
# Track frame offsets:
#	150
#	18507
#	28555
#	39990
#	53110
#	67075
#	78335
#	91752
#	104552
#	121055
#	133705
#	145287
#	156382
#	165397
#	178772
#	189930
#	200932
#	213992
#	222722
#
# Disc length: 3178 seconds
#
# Revision: 1
# Processed by: cddbd v1.5.2PL0 Copyright (c) Steve Scherf et al.
# Submitted via: audiograbber 1.83.01
#
DISCID=150c6813
DTITLE=Various Artist - A Liitle Bit Country, A Little Bit Rock 'n' Roll (Read
DTITLE=er's Digest) [Disc 2]
DYEAR=2001
DGENRE=Country
TTITLE0=Don Williams - I Believe In You
TTITLE1=Roy Orbison - Running Scared
TTITLE2=Sonny James - Young Love
TTITLE3=Jimmy Little - Baby Blue
TTITLE4=Mac Davis - Baby Don't Get Hooked On Me
TTITLE5=Floyd Cramer - Last Date
TTITLE6=Bobby Helms - My Special Angel
TTITLE7=Mickey Gilley - Room Full Of Roses
TTITLE8=Lionel Rose - I Thank You
TTITLE9=B.J. Thomas - Hooked On A Feeling
TTITLE10=Jody Miller - He Walks Like A Man
TTITLE11=Bobby Goldsboro - Little Things
TTITLE12=Lovin' Spoonful - Did You Ever Have To Make Up Your Mind?
TTITLE13=Claude King - Wolverton Mountain
TTITLE14=Sue Thompson - Paper Tiger
TTITLE15=Glen Campbell - Try A Little Kindness
TTITLE16=Leapy Lee - Little Arrows
TTITLE17=Col Joye - Today's Teardrops
TTITLE18=Joe South - Games People Play
EXTD=Readers Digest Music
EXTT0=
EXTT1=
EXTT2=
EXTT3=
EXTT4=
EXTT5=
EXTT6=
EXTT7=
EXTT8=
EXTT9=
EXTT10=
EXTT11=
EXTT12=
EXTT13=
EXTT14=
EXTT15=
EXTT16=
EXTT17=
EXTT18=
PLAYORDER=
